<?xml version="1.0" standalone="no"?>
<svg xmlns="http://www.w3.org/2000/svg" viewBox="0 0 421.29721572794904 100.377215727949" width="421.29721572794904" height="100.377215727949"><rect fill="none" stroke="#fd4f04" stroke-width="4" width="417.29721572794904" height="96.377215727949" x="2" y="2"></rect><g fill="#5e24c3" color="#5e24c3" transform="translate(12 15.603) scale(1.4410796)"><svg width="53.0" height="48.0" x="0.0" y="0.0" viewBox="0 0 53 48"><path fill="currentColor" fill-rule="evenodd" d="M14.18 0L0 8.432v16.864l14.18 8.435L24 27.846v11.72L38.181 48l14.181-8.434V22.704l-14.181-8.433-9.818 5.883V8.432L14.18 0zM4.364 22.814V10.915l9.817-5.84L24 10.915v11.853l-9.819 5.885-9.817-5.839zm23.999 14.27V25.23l9.818-5.884 9.818 5.837v11.9L38.18 42.92l-9.818-5.837z"></path></svg></g><path fill="#5e24c3" fill-rule="nonzero" d="M20.80 0.24L20.80 5.20L13.16 5.20L13.16 28.72L7.60 28.72L7.60 5.20L0 5.20L0 0.24L20.80 0.24ZM40.32 17.24L46.68 28.72L40.24 28.72L34.68 18.16L30.68 18.16L30.68 28.72L25.12 28.72L25.12 6.36Q25.12 3.16 26.60 1.70Q28.08 0.24 31.56 0.24L31.56 0.24L36.28 0.24Q40.52 0.24 43.02 2.82Q45.52 5.40 45.52 9.36L45.52 9.36Q45.52 12.24 44.02 14.34Q42.52 16.44 40.32 17.24L40.32 17.24ZM35.92 13.52Q37.68 13.52 38.82 12.30Q39.96 11.08 39.96 9.26Q39.96 7.44 38.86 6.32Q37.76 5.20 35.92 5.20L35.92 5.20L33.16 5.20Q30.68 5.20 30.68 7.72L30.68 7.72L30.68 13.52L35.92 13.52ZM63.76 2.64L72.88 28.72L67.08 28.72L65.48 23.80L55.92 23.80L54.36 28.72L48.56 28.72L57.68 2.64Q58.28 1.28 59.02 0.76Q59.76 0.24 60.84 0.24Q61.92 0.24 62.58 0.72Q63.24 1.20 63.76 2.64L63.76 2.64ZM57.32 19.12L64.20 19.12L60.84 7.84L57.32 19.12ZM93.44 0.24L99 0.24L99 25.84Q99 27.16 98.20 28.10Q97.40 29.04 96.32 29.04L96.32 29.04Q93.56 29.04 91.80 25.84L91.80 25.84L81.96 10.44L81.96 28.72L76.40 28.72L76.40 0.24L81.76 0.24L93.44 18.88L93.44 0.24ZM123.96 20.32L123.96 20.32Q123.96 24.36 121 26.66Q118.04 28.96 113.44 28.96L113.44 28.96Q109.80 28.96 106.40 26.96L106.40 26.96Q104.72 25.92 103.64 24.02Q102.56 22.12 102.56 19.68L102.56 19.68L107.60 19.44Q107.60 21.60 109.44 22.80Q111.28 24 113.52 24L113.52 24Q118.52 24 118.52 20.48L118.52 20.48Q118.52 17.60 115.12 17.08L115.12 17.08L110.48 16.60Q107 16.08 104.96 14.12Q102.92 12.16 102.92 8.48Q102.92 4.80 105.84 2.40Q108.76 0 113.22 0Q117.68 0 120.40 2.26Q123.12 4.52 123.12 8.08L123.12 8.08L118.16 8.32Q117.48 4.84 113.48 4.84L113.48 4.84Q111.04 4.84 109.66 5.88Q108.28 6.92 108.28 8.34Q108.28 9.76 109.28 10.58Q110.28 11.40 111.76 11.60L111.76 11.60L116.32 12.08Q123.96 13.12 123.96 20.32ZM147.16 0.24L147.16 5.20L137.12 5.20Q135.36 5.20 134.66 5.88Q133.96 6.56 133.96 8.24L133.96 8.24L133.96 12.20L144.40 12.20L144 17.16L133.96 17.16L133.96 28.72L128.40 28.72L128.40 6.04Q128.40 2.88 129.78 1.56Q131.16 0.24 134.52 0.24L134.52 0.24L147.16 0.24ZM172.88 13.16L172.88 13.16L172.88 15.32Q172.88 22.48 170.18 25.72Q167.48 28.96 161.52 28.96Q155.56 28.96 152.90 25.72Q150.24 22.48 150.24 15.20L150.24 15.20L150.24 13.12Q150.24 6.48 152.94 3.24Q155.64 0 161.50 0Q167.36 0 170.12 3.28Q172.88 6.56 172.88 13.16ZM167.32 15.20L167.32 15.20L167.32 13.72Q167.32 9.88 166.36 7.60L166.36 7.60Q165.24 4.96 161.56 4.96L161.56 4.96Q157.84 4.96 156.72 7.60L156.72 7.60Q155.80 9.76 155.80 13.72L155.80 13.72L155.80 15.20Q155.80 20.36 157.24 22.16L157.24 22.16Q157.80 22.92 158.90 23.46Q160 24 161.54 24Q163.08 24 164.16 23.48Q165.24 22.96 165.84 22.20Q166.44 21.44 166.76 20.20L166.76 20.20Q167.32 18.24 167.32 15.20ZM192.96 17.24L199.32 28.72L192.88 28.72L187.32 18.16L183.32 18.16L183.32 28.72L177.76 28.72L177.76 6.36Q177.76 3.16 179.24 1.70Q180.72 0.24 184.20 0.24L184.20 0.24L188.92 0.24Q193.16 0.24 195.66 2.82Q198.16 5.40 198.16 9.36L198.16 9.36Q198.16 12.24 196.66 14.34Q195.16 16.44 192.96 17.24L192.96 17.24ZM188.56 13.52Q190.32 13.52 191.46 12.30Q192.60 11.08 192.60 9.26Q192.60 7.44 191.50 6.32Q190.40 5.20 188.56 5.20L188.56 5.20L185.80 5.20Q183.32 5.20 183.32 7.72L183.32 7.72L183.32 13.52L188.56 13.52ZM224.96 28.72L224.96 11.72L219.84 22.52Q218.72 24.68 217.06 24.68Q215.40 24.68 214.28 22.40L214.28 22.40L209.08 11.72L209.08 28.72L203.52 28.72L203.52 0.24L209 0.24L217.04 16.68L225.04 0.24L230.52 0.24L230.52 28.72L224.96 28.72ZM255.12 23.76L255.12 28.72L245.04 28.72Q240.24 28.72 238.30 27.06Q236.36 25.40 236.36 21.20L236.36 21.20L236.36 0.24L255.12 0.24L255.12 5.20L241.92 5.20L241.92 11.88L251.16 11.88L250.76 16.84L241.92 16.84L241.92 20.80Q241.92 22.48 242.68 23.12Q243.44 23.76 245.44 23.76L245.44 23.76L255.12 23.76ZM275.76 17.24L282.12 28.72L275.68 28.72L270.12 18.16L266.12 18.16L266.12 28.72L260.56 28.72L260.56 6.36Q260.56 3.16 262.04 1.70Q263.52 0.24 267 0.24L267 0.24L271.72 0.24Q275.96 0.24 278.46 2.82Q280.96 5.40 280.96 9.36L280.96 9.36Q280.96 12.24 279.46 14.34Q277.96 16.44 275.76 17.24L275.76 17.24ZM271.36 13.52Q273.12 13.52 274.26 12.30Q275.40 11.08 275.40 9.26Q275.40 7.44 274.30 6.32Q273.20 5.20 271.36 5.20L271.36 5.20L268.60 5.20Q266.12 5.20 266.12 7.72L266.12 7.72L266.12 13.52L271.36 13.52ZM305.92 20.32L305.92 20.32Q305.92 24.36 302.96 26.66Q300.00 28.96 295.40 28.96L295.40 28.96Q291.76 28.96 288.36 26.96L288.36 26.96Q286.68 25.92 285.60 24.02Q284.52 22.12 284.52 19.68L284.52 19.68L289.56 19.44Q289.56 21.60 291.40 22.80Q293.24 24 295.48 24L295.48 24Q300.48 24 300.48 20.48L300.48 20.48Q300.48 17.60 297.08 17.08L297.08 17.08L292.44 16.60Q288.96 16.08 286.92 14.12Q284.88 12.16 284.88 8.48Q284.88 4.80 287.80 2.40Q290.72 0 295.18 0Q299.64 0 302.36 2.26Q305.08 4.52 305.08 8.08L305.08 8.08L300.12 8.32Q299.44 4.84 295.44 4.84L295.44 4.84Q293.00 4.84 291.62 5.88Q290.24 6.92 290.24 8.34Q290.24 9.76 291.24 10.58Q292.24 11.40 293.72 11.60L293.72 11.60L298.28 12.08Q305.92 13.12 305.92 20.32Z" transform="translate(103.378 12) scale(1)"></path><path fill="#5e24c3" fill-rule="nonzero" d="M16.16 17.68L16.16 17.68L21.32 17.68Q21.32 23.12 18.60 26.04Q15.88 28.96 10.92 28.96L10.92 28.96Q0 28.96 0 16.12L0 16.12L0 13.72Q0 3.60 5.60 1.04L5.60 1.04Q7.80 0 10.92 0L10.92 0Q15.48 0 18.34 2.50Q21.20 5 21.20 9.72L21.20 9.72L16.00 9.72Q15.56 7.36 14.44 6.16Q13.32 4.96 10.92 4.96L10.92 4.96Q8.12 4.96 6.76 6.72L6.76 6.72Q5.80 7.96 5.64 10.96L5.64 10.96Q5.56 11.92 5.56 13.56L5.56 13.56L5.56 16.04Q5.56 20.64 6.84 22.32L6.84 22.32Q8.16 24 10.94 24Q13.72 24 14.78 22.46Q15.84 20.92 16.16 17.68ZM46.92 13.16L46.92 13.16L46.92 15.32Q46.92 22.48 44.22 25.72Q41.52 28.96 35.56 28.96Q29.60 28.96 26.94 25.72Q24.28 22.48 24.28 15.20L24.28 15.20L24.28 13.12Q24.28 6.48 26.98 3.24Q29.68 0 35.54 0Q41.40 0 44.16 3.28Q46.92 6.56 46.92 13.16ZM41.36 15.20L41.36 15.20L41.36 13.72Q41.36 9.88 40.40 7.60L40.40 7.60Q39.28 4.96 35.60 4.96L35.60 4.96Q31.88 4.96 30.76 7.60L30.76 7.60Q29.84 9.76 29.84 13.72L29.84 13.72L29.84 15.20Q29.84 20.36 31.28 22.16L31.28 22.16Q31.84 22.92 32.94 23.46Q34.04 24 35.58 24Q37.12 24 38.20 23.48Q39.28 22.96 39.88 22.20Q40.48 21.44 40.80 20.20L40.80 20.20Q41.36 18.24 41.36 15.20ZM72.84 28.72L72.84 11.72L67.72 22.52Q66.60 24.68 64.94 24.68Q63.28 24.68 62.16 22.40L62.16 22.40L56.96 11.72L56.96 28.72L51.40 28.72L51.40 0.24L56.88 0.24L64.92 16.68L72.92 0.24L78.40 0.24L78.40 28.72L72.84 28.72ZM105.28 28.72L105.28 11.72L100.16 22.52Q99.04 24.68 97.38 24.68Q95.72 24.68 94.60 22.40L94.60 22.40L89.40 11.72L89.40 28.72L83.84 28.72L83.84 0.24L89.32 0.24L97.36 16.68L105.36 0.24L110.84 0.24L110.84 28.72L105.28 28.72ZM132.08 0.24L137.60 0.24L137.60 18.96Q137.60 23.60 134.46 26.28Q131.32 28.96 126.72 28.96Q122.12 28.96 118.98 26.28Q115.84 23.60 115.84 18.96L115.84 18.96L115.84 0.24L121.40 0.24L121.40 18.76Q121.40 21.40 122.86 22.70Q124.32 24 126.72 24Q129.12 24 130.60 22.70Q132.08 21.40 132.08 18.76L132.08 18.76L132.08 0.24ZM160.04 0.24L165.60 0.24L165.60 25.84Q165.60 27.16 164.80 28.10Q164 29.04 162.92 29.04L162.92 29.04Q160.16 29.04 158.40 25.84L158.40 25.84L148.56 10.44L148.56 28.72L143.00 28.72L143.00 0.24L148.36 0.24L160.04 18.88L160.04 0.24ZM176.92 0.24L176.92 28.72L171.36 28.72L171.36 0.24L176.92 0.24ZM202.08 0.24L202.08 5.20L194.44 5.20L194.44 28.72L188.88 28.72L188.88 5.20L181.28 5.20L181.28 0.24L202.08 0.24ZM219.80 0.24L225.84 0.24L217.28 17.04L217.28 28.72L211.76 28.72L211.76 17.04L203.20 0.24L209.24 0.24L214.56 11.72L219.80 0.24Z" transform="translate(103.378 49.04) scale(1.355)"></path></svg>